<?xml version="1.0" standalone="no"?>
<!DOCTYPE svg PUBLIC "-//W3C//DTD SVG 20010904//EN"
 "http://www.w3.org/TR/2001/REC-SVG-20010904/DTD/svg10.dtd">
<svg version="1.0" xmlns="http://www.w3.org/2000/svg"
 width="105.000000pt" height="50.000000pt" viewBox="0 0 105.000000 50.000000"
 preserveAspectRatio="xMidYMid meet">

<g transform="translate(0.000000,50.000000) scale(0.100000,-0.100000)"
fill="#808080" stroke="none">
<path d="M93 490 c-32 -13 -43 -41 -43 -115 0 -58 -3 -69 -25 -89 -31 -29 -31
-43 0 -72 22 -20 25 -31 25 -92 0 -83 16 -110 73 -119 35 -5 37 -4 37 21 0 19
-5 26 -20 26 -28 0 -40 30 -40 104 0 45 -5 69 -16 80 -14 15 -14 17 0 32 11
11 16 35 16 80 0 77 12 104 45 104 l25 0 0 -154 c0 -172 8 -195 65 -199 24 -2
31 2 33 20 2 14 -4 26 -17 33 -20 10 -21 19 -21 180 l0 170 -57 -1 c-32 0 -68
-4 -80 -9z"/>
<path d="M898 494 c-9 -19 -2 -35 22 -47 23 -11 25 -19 28 -87 2 -51 8 -80 19
-92 14 -15 14 -20 2 -34 -8 -10 -16 -50 -19 -93 -5 -68 -7 -77 -30 -88 -14 -7
-25 -20 -25 -30 0 -14 8 -18 34 -16 56 2 74 30 79 123 4 66 8 83 23 91 11 5
19 18 19 29 0 11 -8 24 -19 29 -15 8 -19 25 -23 91 -4 62 -9 86 -24 100 -21
21 -79 37 -86 24z"/>
<path d="M329 347 c-55 -37 -73 -133 -38 -199 16 -30 70 -58 114 -58 63 0 85
9 85 35 0 21 -4 22 -61 21 -49 -1 -63 3 -75 18 -29 40 -19 46 72 46 l87 0 -5
52 c-4 42 -11 57 -37 80 -40 36 -94 38 -142 5z m103 -44 c33 -30 23 -43 -37
-43 -59 0 -68 10 -38 42 20 22 51 23 75 1z"/>
<path d="M555 346 c-25 -25 -33 -68 -17 -94 5 -7 33 -25 63 -40 38 -19 54 -33
54 -47 0 -18 -6 -20 -62 -18 -60 1 -63 0 -63 -22 0 -20 7 -25 36 -31 153 -28
216 95 80 157 -36 17 -51 30 -51 44 0 18 7 20 53 20 51 -1 53 0 50 25 -3 23
-7 25 -60 28 -51 3 -61 0 -83 -22z"/>
<path d="M755 345 c-26 -25 -32 -68 -15 -95 5 -8 33 -26 62 -40 38 -18 53 -31
53 -45 0 -18 -6 -20 -62 -18 -60 1 -63 0 -63 -22 0 -28 17 -35 78 -35 58 0 94
18 106 51 17 49 0 77 -62 107 -41 20 -57 33 -57 47 0 17 7 20 52 20 46 -1 52
2 56 22 5 27 -9 33 -74 33 -40 0 -55 -5 -74 -25z"/>
</g>
</svg>
