<?xml version="1.0" standalone="no"?>
<!DOCTYPE svg PUBLIC "-//W3C//DTD SVG 20010904//EN"
 "http://www.w3.org/TR/2001/REC-SVG-20010904/DTD/svg10.dtd">
<svg version="1.0" xmlns="http://www.w3.org/2000/svg"
 width="156.000000pt" height="41.000000pt" viewBox="0 0 156.000000 41.000000"
 preserveAspectRatio="xMidYMid meet">

<g transform="translate(0.000000,41.000000) scale(0.100000,-0.100000)"
fill="#808080" stroke="none">
<path d="M250 395 c-25 -30 10 -61 38 -33 17 17 15 26 -7 37 -14 8 -22 7 -31
-4z"/>
<path d="M962 398 c-7 -7 -12 -26 -12 -44 0 -32 -1 -32 -39 -27 -46 6 -93 -17
-110 -54 -41 -90 36 -180 128 -149 59 19 76 54 79 166 3 89 2 99 -16 109 -13
7 -22 7 -30 -1z m-34 -134 c26 -18 28 -50 5 -76 -22 -25 -59 -23 -77 4 -21 30
-20 44 4 68 24 24 38 25 68 4z"/>
<path d="M53 310 c-39 -24 -53 -67 -53 -171 0 -56 4 -80 15 -89 25 -20 45 -4
45 35 0 34 2 36 28 35 57 -4 74 1 103 29 23 24 29 38 29 73 -1 90 -88 137
-167 88z m97 -50 c11 -11 20 -26 20 -33 0 -23 -31 -57 -52 -57 -27 0 -58 28
-58 52 0 22 34 58 55 58 8 0 24 -9 35 -20z"/>
<path d="M244 317 c-3 -8 -4 -54 -2 -103 3 -78 5 -89 22 -92 10 -2 22 2 27 10
13 21 11 172 -3 186 -16 16 -37 15 -44 -1z"/>
<path d="M375 318 c-43 -23 -55 -50 -55 -126 0 -70 1 -73 23 -70 19 3 23 10
27 66 5 62 23 92 55 92 32 0 50 -30 55 -92 4 -55 8 -63 27 -66 15 -2 23 3 28
18 8 24 -3 117 -16 142 -21 40 -101 60 -144 36z"/>
<path d="M591 304 c-51 -43 -51 -115 0 -163 17 -16 36 -21 76 -21 50 0 52 -1
44 -22 -4 -13 -21 -27 -39 -32 -50 -16 -55 -56 -6 -56 37 0 78 25 92 55 7 14
12 64 12 111 0 84 -1 87 -34 120 -44 44 -99 47 -145 8z m104 -48 c26 -26 25
-51 -3 -73 -34 -28 -82 -3 -82 42 0 22 32 55 53 55 4 0 19 -11 32 -24z"/>
<path d="M1072 314 c-88 -61 -47 -194 59 -194 51 0 75 13 94 50 25 49 19 88
-19 126 -27 27 -42 34 -73 34 -21 0 -49 -7 -61 -16z m90 -46 c28 -22 31 -55 9
-77 -25 -25 -48 -27 -73 -4 -25 22 -23 59 4 77 27 19 39 20 60 4z"/>
<path d="M1308 313 c-37 -23 -50 -59 -46 -129 3 -52 5 -59 26 -62 21 -3 22 0
22 57 0 48 4 65 21 82 33 33 44 19 49 -62 5 -71 6 -74 30 -74 24 0 25 2 28 78
2 42 6 77 10 77 4 0 18 -7 30 -16 18 -12 22 -25 22 -67 0 -60 10 -80 36 -75
17 3 19 13 19 77 0 69 -1 74 -33 102 -30 27 -38 29 -110 29 -54 0 -85 -5 -104
-17z"/>
</g>
</svg>
