<?xml version="1.0" standalone="no"?>
<!DOCTYPE svg PUBLIC "-//W3C//DTD SVG 20010904//EN"
 "http://www.w3.org/TR/2001/REC-SVG-20010904/DTD/svg10.dtd">
<svg version="1.0" xmlns="http://www.w3.org/2000/svg"
 width="138.000000pt" height="39.000000pt" viewBox="0 0 138.000000 39.000000"
 preserveAspectRatio="xMidYMid meet">

<g transform="translate(0.000000,39.000000) scale(0.100000,-0.100000)"
fill="#808080" stroke="none">
<path d="M295 376 c-46 -20 -82 -69 -96 -130 -14 -63 -7 -97 23 -126 19 -17
35 -20 130 -20 59 0 108 4 108 9 0 5 3 16 6 25 4 11 1 16 -10 16 -20 0 -20 8
-1 53 19 47 19 111 -1 142 -27 42 -101 56 -159 31z m86 -56 c22 -12 25 -49 7
-115 l-12 -45 -48 0 c-41 0 -50 4 -59 23 -15 33 5 101 38 126 29 23 45 26 74
11z"/>
<path d="M1259 298 c-51 -77 -51 -76 -56 -60 -3 6 -21 12 -40 12 -35 0 -35 0
-27 -32 4 -18 8 -52 8 -75 0 -42 2 -43 32 -43 27 0 34 5 43 31 8 24 68 108
154 217 7 9 0 12 -31 12 -39 0 -43 -3 -83 -62z"/>
<path d="M116 314 c-13 -35 -7 -45 27 -42 27 2 33 8 35 31 3 24 0 27 -26 27
-18 0 -32 -6 -36 -16z"/>
<path d="M521 308 c-4 -13 -14 -53 -21 -91 -11 -59 -10 -70 4 -92 15 -23 22
-25 95 -25 l78 0 21 103 c28 130 28 129 -5 125 -26 -3 -29 -9 -48 -88 -20 -83
-22 -85 -50 -85 -28 0 -30 2 -29 40 0 22 4 61 8 88 8 46 8 47 -18 47 -18 0
-29 -7 -35 -22z"/>
<path d="M788 314 c-35 -18 -57 -62 -65 -122 -4 -38 -1 -52 15 -71 17 -23 27
-25 98 -25 79 -1 79 -1 82 26 3 27 2 27 -60 30 -50 2 -63 6 -66 21 -3 15 5 17
71 17 l75 0 6 34 c9 49 -1 82 -30 95 -34 15 -94 13 -126 -5z m92 -60 c0 -10
-13 -14 -40 -14 -43 0 -53 16 -18 29 28 10 58 3 58 -15z"/>
<path d="M997 313 c-3 -10 -13 -54 -22 -98 -9 -44 -19 -88 -21 -97 -4 -15 1
-18 28 -18 l34 0 13 72 c19 103 14 98 92 98 53 0 69 3 69 14 0 30 -42 46 -117
46 -60 0 -72 -3 -76 -17z"/>
<path d="M106 252 c-3 -5 -10 -31 -16 -58 -24 -108 -31 -125 -54 -134 -28 -10
-41 -49 -20 -57 31 -12 84 7 99 36 17 34 56 202 49 213 -7 11 -51 10 -58 0z"/>
</g>
</svg>
