<?xml version="1.0" standalone="no"?>
<!DOCTYPE svg PUBLIC "-//W3C//DTD SVG 20010904//EN"
 "http://www.w3.org/TR/2001/REC-SVG-20010904/DTD/svg10.dtd">
<svg version="1.0" xmlns="http://www.w3.org/2000/svg"
 width="186.000000pt" height="38.000000pt" viewBox="0 0 186.000000 38.000000"
 preserveAspectRatio="xMidYMid meet">

<g transform="translate(0.000000,38.000000) scale(0.100000,-0.100000)"
fill="#808080" stroke="none">
<path d="M25 355 c-24 -23 -25 -31 -25 -135 0 -104 1 -112 25 -135 23 -24 29
-25 157 -25 124 -1 136 -2 173 -25 50 -31 57 -31 49 0 l-6 25 94 0 c138 0 138
0 138 160 0 122 -1 130 -22 144 -19 14 -64 16 -291 16 l-268 0 -24 -25z m261
-47 c-3 -18 -10 -53 -15 -78 -6 -25 -10 -63 -11 -86 0 -22 -3 -43 -6 -47 -13
-13 -36 8 -60 54 -13 27 -26 49 -29 49 -3 0 -16 -23 -30 -51 -35 -69 -55 -64
-76 21 -28 114 -31 150 -14 156 22 9 25 4 37 -70 6 -36 15 -66 19 -66 5 0 20
22 34 49 39 78 57 77 70 -1 9 -49 20 -41 28 17 8 56 23 85 44 85 12 0 14 -7 9
-32z m128 -14 c59 -58 1 -194 -72 -168 -55 19 -65 101 -21 158 24 30 69 35 93
10z m160 0 c59 -58 1 -194 -72 -168 -55 19 -65 101 -21 158 24 30 69 35 93 10z"/>
<path d="M352 258 c-28 -36 -19 -104 12 -92 24 9 39 59 26 83 -12 24 -23 26
-38 9z"/>
<path d="M512 258 c-15 -20 -23 -54 -16 -72 10 -26 40 -19 54 13 20 49 -9 94
-38 59z"/>
<path d="M696 284 c-28 -29 -35 -79 -15 -116 13 -24 72 -50 93 -42 28 11 19
41 -13 47 -37 8 -48 39 -26 73 11 18 23 24 36 21 15 -4 19 0 19 19 0 21 -5 24
-34 24 -23 0 -42 -8 -60 -26z"/>
<path d="M820 288 c-26 -28 -28 -106 -2 -138 25 -31 88 -32 113 -1 27 33 26
114 -1 141 -27 27 -83 27 -110 -2z m69 -32 c7 -8 11 -30 9 -48 -2 -25 -8 -33
-23 -33 -22 0 -31 30 -21 71 7 27 18 30 35 10z"/>
<path d="M975 298 c-2 -7 -7 -48 -12 -90 -9 -76 -9 -78 13 -78 25 0 34 17 35
68 1 40 3 38 19 -25 8 -32 16 -43 30 -43 15 0 21 9 26 40 9 57 24 60 24 6 l0
-46 55 0 55 0 0 46 c0 54 15 50 25 -6 5 -30 11 -40 25 -40 14 0 22 12 30 43
16 63 18 65 19 25 1 -52 10 -68 37 -68 22 0 24 3 18 38 -3 20 -8 60 -12 87 -7
47 -9 50 -39 53 -30 3 -32 1 -39 -33 -7 -39 -20 -36 -26 5 -2 20 -9 26 -35 28
-31 3 -32 2 -39 -45 -3 -26 -10 -66 -13 -88 -7 -39 -7 -39 -15 25 -12 107 -14
112 -49 108 -26 -3 -32 -9 -42 -43 l-11 -40 -7 43 c-7 39 -10 42 -37 42 -17 0
-32 -6 -35 -12z"/>
<path d="M1390 221 l0 -91 50 0 c43 0 50 3 50 20 0 15 -7 20 -25 20 -16 0 -25
6 -25 15 0 8 9 15 20 15 13 0 20 7 20 20 0 13 -7 20 -20 20 -11 0 -20 7 -20
15 0 9 10 15 26 15 19 0 25 5 22 18 -2 13 -15 18 -51 20 l-47 3 0 -90z"/>
<path d="M1500 220 c0 -89 0 -90 25 -90 21 0 25 5 26 33 l0 32 16 -32 c12 -23
24 -33 40 -33 27 0 29 10 8 49 -13 26 -13 30 0 41 13 11 15 8 15 -17 0 -46 64
-92 106 -76 24 9 17 43 -9 43 -60 0 -65 91 -5 95 15 1 24 9 26 23 3 19 -1 22
-33 22 -25 0 -43 -8 -60 -24 -19 -19 -27 -22 -32 -12 -13 21 -49 36 -87 36
l-36 0 0 -90z m70 36 c0 -8 -4 -18 -10 -21 -5 -3 -10 3 -10 14 0 12 5 21 10
21 6 0 10 -6 10 -14z"/>
<path d="M1760 221 l0 -91 50 0 c43 0 50 3 50 20 0 15 -7 20 -25 20 -16 0 -25
6 -25 15 0 8 9 15 20 15 13 0 20 7 20 20 0 13 -7 20 -20 20 -11 0 -20 7 -20
15 0 9 10 15 26 15 19 0 25 5 22 18 -2 13 -15 18 -51 20 l-47 3 0 -90z"/>
</g>
</svg>
