<?xml version="1.0" standalone="no"?>
<!DOCTYPE svg PUBLIC "-//W3C//DTD SVG 20010904//EN"
 "http://www.w3.org/TR/2001/REC-SVG-20010904/DTD/svg10.dtd">
<svg version="1.0" xmlns="http://www.w3.org/2000/svg"
 width="186.000000pt" height="38.000000pt" viewBox="0 0 186.000000 38.000000"
 preserveAspectRatio="xMidYMid meet">

<g transform="translate(0.000000,38.000000) scale(0.100000,-0.100000)"
fill="#808080" stroke="none">
<path d="M115 361 c-48 -22 -79 -54 -100 -103 -63 -153 107 -314 253 -239 151
78 145 280 -10 346 -49 20 -94 19 -143 -4z m153 -12 c95 -47 128 -169 69 -258
-49 -74 -140 -99 -223 -62 -134 61 -135 254 -2 320 54 27 100 27 156 0z"/>
<path d="M136 336 c-22 -8 -48 -24 -60 -35 l-20 -21 33 0 c28 0 32 -2 21 -14
-9 -12 -7 -30 11 -85 13 -39 26 -71 29 -71 4 0 12 18 19 41 14 45 6 98 -15
106 -30 11 -12 23 37 23 44 0 50 -2 39 -14 -9 -12 -7 -30 11 -85 13 -39 26
-71 29 -71 4 0 12 21 18 48 8 38 8 53 -4 76 -16 34 -18 66 -4 66 19 0 10 17
-14 28 -43 19 -90 22 -130 8z"/>
<path d="M35 210 c-5 -32 -2 -50 17 -87 12 -26 33 -53 46 -61 21 -14 20 -10
-14 84 -19 54 -37 100 -39 102 -2 2 -6 -15 -10 -38z"/>
<path d="M304 153 c-32 -96 -31 -113 5 -67 30 38 46 98 35 132 -8 27 -11 22
-40 -65z"/>
<path d="M172 110 c-12 -34 -19 -67 -16 -71 6 -11 55 -11 71 -1 9 6 6 23 -11
71 l-23 64 -21 -63z"/>
<path d="M412 273 c11 -3 27 -33 45 -89 15 -46 30 -84 33 -84 4 0 14 25 24 56
10 31 21 52 26 48 4 -5 16 -34 25 -64 l18 -55 29 85 c15 47 36 91 45 98 14 10
11 12 -23 12 -27 0 -35 -3 -25 -9 12 -8 12 -16 1 -55 -7 -25 -16 -46 -19 -46
-4 0 -16 26 -26 58 l-18 57 -18 -40 c-10 -22 -18 -48 -18 -57 -2 -33 -18 -27
-30 11 -14 49 -14 68 2 74 6 3 -10 5 -38 5 -27 0 -42 -2 -33 -5z"/>
<path d="M1174 264 c11 -10 16 -34 16 -74 0 -40 -5 -64 -16 -74 -14 -15 -11
-16 28 -16 24 0 38 4 31 8 -6 4 -13 21 -15 37 -3 27 0 30 29 33 20 2 39 12 48
25 19 28 19 33 -5 57 -15 15 -33 20 -76 20 -50 0 -54 -1 -40 -16z m84 -3 c8
-5 12 -21 10 -37 -2 -23 -8 -29 -28 -29 -19 0 -26 6 -28 23 -7 45 14 64 46 43z"/>
<path d="M675 215 c-30 -29 -32 -64 -5 -93 40 -42 103 -37 135 11 49 75 -66
147 -130 82z m105 -17 c13 -25 13 -31 0 -55 -31 -55 -100 -37 -100 26 0 60 71
81 100 29z"/>
<path d="M838 233 c7 -3 12 -26 12 -63 0 -37 -5 -60 -12 -63 -7 -3 5 -5 27 -5
22 0 34 2 28 5 -15 5 -18 43 -4 43 5 0 16 -11 25 -25 15 -23 22 -25 99 -25 99
0 127 14 127 63 0 38 -7 50 -37 66 -31 16 -121 15 -105 -1 7 -7 12 -36 12 -65
0 -49 -2 -53 -23 -53 -13 0 -34 11 -47 25 -20 21 -21 25 -6 31 22 9 20 51 -3
64 -11 5 -39 10 -63 9 -24 0 -37 -3 -30 -6z m81 -17 c15 -18 3 -46 -20 -46
-13 0 -19 7 -19 23 0 37 18 48 39 23z m183 -9 c15 -24 9 -76 -11 -87 -43 -22
-51 -14 -51 51 l0 61 27 -7 c15 -3 31 -12 35 -18z"/>
<path d="M1334 224 c9 -9 16 -32 16 -54 0 -22 -7 -45 -16 -54 -14 -15 -12 -16
22 -16 30 0 35 3 26 12 -7 7 -12 21 -12 32 1 18 4 17 29 -11 27 -33 29 -33
114 -33 77 0 87 2 86 18 0 10 -3 12 -6 5 -8 -22 -61 -16 -68 8 -10 31 12 49
31 25 13 -19 14 -18 13 15 0 19 -3 28 -6 22 -8 -22 -43 -15 -43 7 0 26 27 37
51 21 15 -9 19 -8 19 4 0 12 -13 15 -62 15 -53 0 -59 -2 -44 -13 13 -10 17
-24 14 -62 -2 -41 -7 -51 -23 -53 -12 -2 -31 8 -45 23 -13 14 -18 25 -12 25 6
0 17 10 23 22 17 31 -19 58 -78 58 -40 0 -43 -1 -29 -16z m76 -9 c16 -20 5
-45 -20 -45 -14 0 -20 7 -20 23 0 38 18 48 40 22z"/>
<path d="M1640 225 c-17 -21 -6 -42 35 -66 19 -12 35 -27 35 -35 0 -23 -47
-17 -64 8 -16 22 -16 22 -15 -12 0 -19 3 -30 5 -23 4 9 11 9 28 1 32 -14 66 5
66 36 0 16 -12 32 -40 50 -23 15 -38 31 -35 36 10 16 43 11 54 -7 10 -16 10
-16 11 2 0 17 -7 21 -34 23 -20 2 -38 -4 -46 -13z"/>
<path d="M1773 233 c-7 -2 -13 -15 -13 -29 0 -18 10 -29 41 -44 44 -23 47 -43
6 -48 -21 -3 -29 2 -36 20 -10 23 -10 23 -10 -3 -1 -22 5 -28 31 -33 22 -4 37
-1 50 10 29 27 22 52 -22 74 -22 11 -40 25 -40 31 0 19 31 21 50 4 19 -17 20
-17 20 1 0 15 -7 20 -32 21 -18 1 -39 -1 -45 -4z"/>
</g>
</svg>
